<?xml version="1.0" encoding="utf-8"?>
<!-- Generator: Adobe Illustrator 16.0.3, SVG Export Plug-In . SVG Version: 6.00 Build 0)  -->
<!DOCTYPE svg PUBLIC "-//W3C//DTD SVG 1.1//EN" "http://www.w3.org/Graphics/SVG/1.1/DTD/svg11.dtd">
<svg version="1.1" xmlns="http://www.w3.org/2000/svg" xmlns:xlink="http://www.w3.org/1999/xlink" x="0px" y="0px" width="128px"
	 height="128px" viewBox="0 0 128 128" enable-background="new 0 0 128 128" xml:space="preserve">
<g id="Ebene_1_Kopie" display="none">
	<g display="inline">
		<linearGradient id="SVGID_1_" gradientUnits="userSpaceOnUse" x1="5.3984" y1="122.6025" x2="63.7171" y2="64.2838">
			<stop  offset="0" style="stop-color:#101719"/>
			<stop  offset="1" style="stop-color:#707475"/>
		</linearGradient>
		<path fill="url(#SVGID_1_)" d="M60.978,67.021c-4.645-4.645-8.081-10.045-10.328-15.804l-3.844,3.846L5.398,96.469
			c-7.22,7.219-7.219,18.915,0,26.133c7.216,7.221,18.914,7.221,26.134,0l41.405-41.406l3.847-3.845
			C71.022,75.104,65.625,71.669,60.978,67.021z"/>
		
			<linearGradient id="SVGID_2_" gradientUnits="userSpaceOnUse" x1="55.3193" y1="60.1484" x2="55.3193" y2="-8.5166" gradientTransform="matrix(0.7071 0.7071 -0.7071 0.7071 72.7578 -22.9922)">
			<stop  offset="0" style="stop-color:#878B8C"/>
			<stop  offset="1" style="stop-color:#DBDCDC"/>
		</linearGradient>
		<path fill="url(#SVGID_2_)" d="M117.898,10.104C104.512-3.281,82.73-3.28,69.343,10.105c-13.383,13.384-13.383,35.165,0,48.549
			c13.388,13.385,35.167,13.385,48.554,0.001C131.281,45.27,131.281,23.487,117.898,10.104z"/>
	</g>
	
		<rect x="-18.46" y="101.774" transform="matrix(0.7071 0.7071 -0.7071 0.7071 82.1598 15.1955)" display="inline" width="82.395" height="10"/>
</g>
<g id="Ebene_1_Kopie_Kopie">
	<linearGradient id="SVGID_3_" gradientUnits="userSpaceOnUse" x1="64.0005" y1="119" x2="64.0005" y2="9.0005">
		<stop  offset="0.3" style="stop-color:#426080"/>
		<stop  offset="1" style="stop-color:#819CBD"/>
	</linearGradient>
	<circle fill="url(#SVGID_3_)" cx="64" cy="64" r="55"/>
	<g>
		<path fill="#FFFFFF" d="M100.031,48.505L53.63,94.833c-0.899,0.899-2.226,1.323-3.974,1.274c-1.599-0.047-2.823-0.476-3.673-1.274
			L25.967,74.816c-0.898-0.898-1.348-1.997-1.348-3.297c0-1.299,0.449-2.398,1.348-3.299l6.673-6.671
			c0.899-0.897,1.998-1.349,3.299-1.349c1.299,0,2.398,0.451,3.298,1.349l10.57,10.571l36.957-36.882
			c0.899-0.9,1.998-1.349,3.297-1.349s2.399,0.449,3.3,1.349l6.671,6.596c0.898,0.951,1.35,2.063,1.35,3.336
			C101.381,46.446,100.93,47.556,100.031,48.505z"/>
	</g>
</g>
<g id="Ebene_2" display="none">
	<g display="inline">
		<path fill="none" d="M117.781,44.044c-0.475-0.045-0.955-0.069-1.438-0.069C116.826,43.975,117.306,43.999,117.781,44.044z"/>
		<path fill="none" d="M119.175,44.243c-0.225-0.043-0.455-0.067-0.683-0.099C118.72,44.176,118.95,44.2,119.175,44.243z"/>
		<path fill="none" d="M60.29,43.672c-0.011,0.003-0.021,0.008-0.032,0.011C60.269,43.68,60.279,43.676,60.29,43.672z"/>
		<path fill="none" d="M57.766,44.742c-0.106,0.057-0.207,0.125-0.311,0.186C57.559,44.867,57.66,44.799,57.766,44.742z"/>
		<path fill="none" d="M59.003,44.147c-0.05,0.021-0.098,0.048-0.148,0.069C58.905,44.195,58.953,44.169,59.003,44.147z"/>
		<path fill="none" d="M121.808,45.005c-0.068-0.027-0.14-0.048-0.209-0.074C121.668,44.957,121.739,44.978,121.808,45.005z"/>
		<path fill="none" d="M123.043,45.559c-0.027-0.014-0.055-0.025-0.082-0.039C122.988,45.534,123.016,45.545,123.043,45.559z"/>
		<path fill="none" d="M120.519,44.565c-0.133-0.039-0.27-0.065-0.403-0.1C120.249,44.5,120.386,44.527,120.519,44.565z"/>
		<path fill="none" d="M124.221,46.225c-0.001-0.001-0.003-0.002-0.004-0.003C124.218,46.223,124.22,46.224,124.221,46.225z"/>
		<path fill="none" d="M56.581,45.456c-0.183,0.122-0.355,0.262-0.533,0.393C56.225,45.718,56.398,45.579,56.581,45.456z"/>
		<path fill="none" d="M46.372,108.199c-0.008,0.012-0.014,0.024-0.021,0.036C46.358,108.224,46.364,108.211,46.372,108.199z"/>
		<path fill="none" d="M55.454,46.291c-0.367,0.3-0.721,0.618-1.061,0.957C54.733,46.91,55.087,46.591,55.454,46.291z"/>
		<path fill="none" d="M47.258,107.001c-0.032,0.039-0.058,0.081-0.09,0.12C47.2,107.082,47.226,107.04,47.258,107.001z"/>
		<linearGradient id="SVGID_4_" gradientUnits="userSpaceOnUse" x1="91.9102" y1="128" x2="91.9101" y2="-0.535">
			<stop  offset="0" style="stop-color:#101719"/>
			<stop  offset="1" style="stop-color:#B7B9BA"/>
		</linearGradient>
		<path fill="url(#SVGID_4_)" d="M103.947,50.202c-0.72-2.975-1.664-5.891-2.853-8.728c-2.963-7.126-7.244-13.461-12.723-18.827
			c-1.974-1.932-5.139-1.9-7.071,0.073c-1.932,1.973-1.899,5.138,0.073,7.07c4.515,4.421,8.043,9.644,10.492,15.535
			c1.806,4.313,2.955,8.841,3.449,13.512l4.553-4.555L103.947,50.202z"/>
		<linearGradient id="SVGID_5_" gradientUnits="userSpaceOnUse" x1="111.0762" y1="128" x2="111.0762" y2="-0.5351">
			<stop  offset="0" style="stop-color:#101719"/>
			<stop  offset="1" style="stop-color:#B7B9BA"/>
		</linearGradient>
		<path fill="url(#SVGID_5_)" d="M117.781,44.044c0.239,0.022,0.474,0.065,0.711,0.1c0.228,0.032,0.458,0.056,0.683,0.099
			c0.318,0.061,0.629,0.143,0.94,0.223c0.134,0.035,0.271,0.061,0.403,0.1c0.366,0.105,0.724,0.232,1.08,0.366
			c0.069,0.026,0.141,0.047,0.209,0.074c0.393,0.154,0.775,0.328,1.153,0.515c0.027,0.014,0.055,0.025,0.082,0.039
			c0.401,0.202,0.792,0.424,1.174,0.663c0.001,0.001,0.003,0.002,0.004,0.003c0.776,0.486,1.507,1.048,2.188,1.68
			c-1.047-5.211-2.606-10.28-4.676-15.166c-4.137-9.794-10.008-18.539-17.452-25.99c-1.952-1.954-5.117-1.956-7.071-0.003
			c-1.953,1.952-1.955,5.117-0.003,7.071c6.528,6.536,11.681,14.211,15.315,22.817c1.022,2.414,1.888,4.885,2.625,7.398
			c0.396-0.031,0.794-0.058,1.196-0.058C116.826,43.975,117.307,43.999,117.781,44.044z"/>
		<linearGradient id="SVGID_6_" gradientUnits="userSpaceOnUse" x1="122.1328" y1="128" x2="122.1328" y2="-0.5351">
			<stop  offset="0" style="stop-color:#101719"/>
			<stop  offset="1" style="stop-color:#B7B9BA"/>
		</linearGradient>
		<path fill="url(#SVGID_6_)" d="M122.151,94.377c1.348-3.317,2.48-6.708,3.362-10.174l-6.763,6.763L122.151,94.377z"/>
		<linearGradient id="SVGID_7_" gradientUnits="userSpaceOnUse" x1="33.9937" y1="128" x2="33.9936" y2="-0.5351">
			<stop  offset="0" style="stop-color:#101719"/>
			<stop  offset="1" style="stop-color:#B7B9BA"/>
		</linearGradient>
		<path fill="url(#SVGID_7_)" d="M46.372,108.199c0.247-0.37,0.515-0.729,0.796-1.078c0.032-0.039,0.058-0.081,0.09-0.12
			c0.315-0.383,0.65-0.754,1.006-1.108l14.929-14.976L47.541,75.049c-2.798-2.819-4.338-6.538-4.338-10.476
			c0-3.947,1.549-7.675,4.373-10.508l6.818-6.817c0.34-0.338,0.694-0.657,1.061-0.957c0.191-0.157,0.395-0.295,0.594-0.442
			c0.178-0.131,0.35-0.271,0.533-0.393c0.283-0.19,0.579-0.359,0.874-0.529c0.104-0.06,0.205-0.128,0.311-0.186
			c0.355-0.192,0.72-0.363,1.089-0.525c0.05-0.021,0.098-0.048,0.148-0.069c0.41-0.174,0.829-0.327,1.254-0.464
			c0.011-0.003,0.021-0.008,0.032-0.011c1.321-0.421,2.709-0.653,4.135-0.692C64.852,30,65.673,18.065,66.839,8.229
			C67.195,5.249,67.576,2.507,67.986,0L35.176,24.516H9.852c-2.776,0-5.108,0.981-7.001,2.927C0.946,29.389,0,31.7,0,34.369V93.61
			c0,2.661,0.946,4.981,2.851,6.916c1.893,1.957,4.225,2.937,7.001,2.937h25.324l9.818,7.342l0-0.001
			c0.365-0.896,0.818-1.756,1.356-2.568C46.357,108.224,46.364,108.211,46.372,108.199z"/>
	</g>
	<g display="inline">
		<g>
			<linearGradient id="SVGID_8_" gradientUnits="userSpaceOnUse" x1="90.6016" y1="128" x2="90.6016" y2="52.96">
				<stop  offset="0" style="stop-color:#C9070A"/>
				<stop  offset="1" style="stop-color:#DF6A6C"/>
			</linearGradient>
			<path fill="url(#SVGID_8_)" d="M104.62,90.954l21.928,21.998c0.968,0.961,1.452,2.106,1.452,3.434
				c0,1.325-0.484,2.447-1.452,3.363l-6.8,6.805c-0.914,0.965-2.053,1.446-3.405,1.446c-1.345,0-2.482-0.481-3.4-1.446
				l-21.992-21.92l-21.999,21.92c-0.918,0.965-2.052,1.446-3.402,1.446c-1.349,0-2.481-0.481-3.4-1.446l-6.803-6.805
				c-0.964-0.916-1.444-2.038-1.444-3.363c0-1.327,0.48-2.473,1.444-3.434l21.93-21.998L54.646,68.012
				c-0.964-0.967-1.444-2.111-1.444-3.439c0-1.323,0.48-2.47,1.444-3.437l6.803-6.803c0.919-0.915,2.051-1.374,3.4-1.374
				c1.351,0,2.484,0.459,3.402,1.374L90.95,77.351l21.992-22.002c0.918-0.915,2.056-1.374,3.4-1.374
				c1.353,0,2.491,0.459,3.405,1.374l6.8,6.803c0.968,0.967,1.452,2.113,1.452,3.437c0,1.327-0.484,2.472-1.452,3.438L104.62,90.954
				z"/>
		</g>
	</g>
</g>
</svg>
