<?xml version="1.0" encoding="iso-8859-1"?>
<!-- Generator: Adobe Illustrator 15.0.0, SVG Export Plug-In . SVG Version: 6.00 Build 0)  -->
<!DOCTYPE svg PUBLIC "-//W3C//DTD SVG 1.1//EN" "http://www.w3.org/Graphics/SVG/1.1/DTD/svg11.dtd">
<svg version="1.1" id="Ebene_1" xmlns="http://www.w3.org/2000/svg" xmlns:xlink="http://www.w3.org/1999/xlink" x="0px" y="0px"
	 width="128px" height="128px" viewBox="0 0 128 128" enable-background="new 0 0 128 128" xml:space="preserve">
<g>
	<polygon fill="#404547" points="96.214,96.179 116.375,119 103.87,119 87.032,100.179 	"/>
	<g>
		<g>
			<path fill="#404547" d="M90.551,63.339c3.952,0,7.528,0.643,10.716,1.926c3.188,1.286,5.897,3.124,8.131,5.515
				c2.234,2.388,3.959,5.28,5.17,8.672c1.205,3.396,1.808,7.224,1.808,11.49c0,4.316-0.628,8.193-1.89,11.639
				c-1.26,3.444-3.029,6.388-5.32,8.828c-2.29,2.446-5.063,4.315-8.324,5.627C97.578,118.348,93.938,119,89.936,119
				c-3.965,0-7.561-0.64-10.798-1.92c-3.237-1.292-5.992-3.137-8.25-5.559c-2.26-2.409-4.01-5.333-5.246-8.747
				c-1.229-3.419-1.844-7.258-1.844-11.524c0-8.94,2.334-15.833,7.014-20.664C75.486,65.755,82.068,63.339,90.551,63.339z
				 M89.892,71.743c-2.164,0-4.135,0.462-5.916,1.387c-1.771,0.926-3.307,2.237-4.594,3.934c-1.292,1.694-2.283,3.752-2.979,6.168
				s-1.042,5.088-1.042,8.019c0,2.93,0.346,5.591,1.042,7.975c0.696,2.396,1.7,4.423,3.019,6.099
				c1.311,1.668,2.873,2.961,4.674,3.89c1.8,0.929,3.84,1.387,6.104,1.387c2.164,0,4.141-0.471,5.916-1.425
				c1.776-0.954,3.308-2.277,4.6-3.971c1.286-1.701,2.297-3.739,3.011-6.13c0.729-2.391,1.086-5.02,1.086-7.906
				c0-2.974-0.345-5.672-1.048-8.094c-0.69-2.409-1.694-4.457-3.012-6.126c-1.317-1.673-2.886-2.955-4.718-3.855
				C94.209,72.192,92.156,71.743,89.892,71.743z"/>
		</g>
		<g>
			<g>
				<linearGradient id="SVGID_1_" gradientUnits="userSpaceOnUse" x1="43.3188" y1="119" x2="43.3188" y2="9.0005">
					<stop  offset="0.3" style="stop-color:#426080"/>
					<stop  offset="1" style="stop-color:#819CBD"/>
				</linearGradient>
				<path fill="url(#SVGID_1_)" d="M63.323,117.679c-3.087-3.292-5.491-7.275-7.151-11.858c-1.576-4.382-2.375-9.284-2.375-14.57
					c0-11.325,3.213-20.385,9.546-26.922c0.094-0.097,0.193-0.187,0.288-0.282c-1.731-1.378-3.209-2.833-2.768-3.309
					c4.153-4.499,5.755-5.678,7.833-10.778l0.654-1.614l1.461-0.762c1.223-0.636,2.853-3.06,3.729-7.052
					c0.503-2.279,0.608-4.581,0.286-6.314c-0.236-1.239-0.613-1.896-0.895-2.093l-1.703-1.214l-0.264-2.211
					C70.647,17.027,63.967,9,52.048,9c-11.926,0-18.604,8.023-19.94,19.687l-0.257,2.226l-1.728,1.211
					c-0.277,0.196-0.659,0.847-0.892,2.092c-0.32,1.736-0.219,4.038,0.285,6.317c0.888,4,2.512,6.423,3.733,7.053l1.477,0.759
					l0.663,1.623c2.073,5.1,3.844,6.45,7.825,10.766c1.067,1.157-4.901,5.096-6.701,6.007c-1.369,0.687-2.756,1.076-4.219,1.491
					c-4.07,1.139-8.684,2.439-14.287,10.972c-4.208,6.423-6.143,28.463-6.384,39.796H64.64
					C64.188,118.572,63.748,118.134,63.323,117.679z"/>
			</g>
		</g>
	</g>
</g>
</svg>
