<?xml version="1.0" encoding="iso-8859-1"?>
<!-- Generator: Adobe Illustrator 15.0.0, SVG Export Plug-In . SVG Version: 6.00 Build 0)  -->
<!DOCTYPE svg PUBLIC "-//W3C//DTD SVG 1.1//EN" "http://www.w3.org/Graphics/SVG/1.1/DTD/svg11.dtd">
<svg version="1.1" id="Ebene_1" xmlns="http://www.w3.org/2000/svg" xmlns:xlink="http://www.w3.org/1999/xlink" x="0px" y="0px"
	 width="128px" height="128px" viewBox="0 0 128 128" enable-background="new 0 0 128 128" xml:space="preserve">
<g>
	<g>
		<linearGradient id="SVGID_1_" gradientUnits="userSpaceOnUse" x1="43.272" y1="119" x2="43.272" y2="4.4553">
			<stop  offset="0.3" style="stop-color:#426080"/>
			<stop  offset="1" style="stop-color:#819CBD"/>
		</linearGradient>
		<path fill="url(#SVGID_1_)" d="M47.435,66.237l-4.517-11.69h12.533h10.817c0.84-1.222,1.576-2.609,2.383-4.588l0.654-1.614
			l1.461-0.762c1.223-0.636,2.853-3.06,3.729-7.052c0.503-2.279,0.608-4.581,0.286-6.314c-0.236-1.239-0.613-1.896-0.895-2.093
			l-1.703-1.214l-0.264-2.211C70.601,17.027,63.92,9,52.001,9c-11.926,0-18.604,8.023-19.94,19.687l-0.257,2.226l-1.728,1.211
			c-0.277,0.196-0.659,0.847-0.892,2.092c-0.32,1.736-0.219,4.038,0.285,6.317c0.888,4,2.512,6.423,3.733,7.053l1.477,0.759
			l0.663,1.623c2.073,5.1,3.844,6.45,7.825,10.766c1.067,1.157-4.901,5.096-6.701,6.007c-1.369,0.687-2.756,1.076-4.219,1.491
			c-4.07,1.139-8.684,2.439-14.287,10.972c-4.208,6.423-6.143,28.463-6.384,39.796h56.24L47.435,66.237z"/>
	</g>
	<g>
		<path fill="#404547" d="M82.285,94.158c0.301,0.867,0.624,1.886,0.969,3.043c0.346,1.152,0.701,2.365,1.084,3.63
			c0.38,1.269,0.745,2.494,1.084,3.686c0.345,1.2,0.633,2.265,0.861,3.205h0.223c0.229-0.94,0.538-2.024,0.92-3.259
			c0.379-1.226,0.759-2.472,1.141-3.739c0.38-1.266,0.738-2.479,1.084-3.631c0.343-1.156,0.667-2.132,0.969-2.935l10.393-31.018
			h15.41L95.068,119H77.031L55.451,63.141h16.556L82.285,94.158z"/>
	</g>
</g>
</svg>
