<?xml version="1.0" encoding="iso-8859-1"?>
<!-- Generator: Adobe Illustrator 15.0.0, SVG Export Plug-In . SVG Version: 6.00 Build 0)  -->
<!DOCTYPE svg PUBLIC "-//W3C//DTD SVG 1.1//EN" "http://www.w3.org/Graphics/SVG/1.1/DTD/svg11.dtd">
<svg version="1.1" id="Ebene_1" xmlns="http://www.w3.org/2000/svg" xmlns:xlink="http://www.w3.org/1999/xlink" x="0px" y="0px"
	 width="128px" height="128px" viewBox="0 0 128 128" enable-background="new 0 0 128 128" xml:space="preserve">
<g>
	<g>
		<g>
			<linearGradient id="SVGID_1_" gradientUnits="userSpaceOnUse" x1="43.272" y1="119" x2="43.272" y2="9.0005">
				<stop  offset="0.3" style="stop-color:#426080"/>
				<stop  offset="1" style="stop-color:#819CBD"/>
			</linearGradient>
			<path fill="url(#SVGID_1_)" d="M59.614,117.511c-3.428-3.256-6.134-7.185-8.041-11.67c-1.904-4.467-2.87-9.419-2.87-14.72
				c0-5.425,0.961-10.453,2.853-14.934c1.921-4.572,4.679-8.539,8.203-11.798c0.686-0.632,1.406-1.229,2.146-1.805
				c-0.855-0.832-1.37-1.543-1.086-1.848c4.153-4.499,5.755-5.678,7.833-10.778l0.654-1.614l1.461-0.762
				c1.223-0.636,2.853-3.06,3.729-7.052c0.503-2.279,0.608-4.581,0.286-6.314c-0.236-1.239-0.613-1.896-0.895-2.093l-1.703-1.214
				l-0.264-2.211C70.601,17.027,63.92,9,52.001,9c-11.926,0-18.604,8.023-19.94,19.687l-0.257,2.226l-1.728,1.211
				c-0.277,0.196-0.659,0.847-0.892,2.092c-0.32,1.736-0.219,4.038,0.285,6.317c0.888,4,2.512,6.423,3.733,7.053l1.477,0.759
				l0.663,1.623c2.073,5.1,3.844,6.45,7.825,10.766c1.067,1.157-4.901,5.096-6.701,6.007c-1.369,0.687-2.756,1.076-4.219,1.491
				c-4.07,1.139-8.684,2.439-14.287,10.972c-4.208,6.423-6.143,28.463-6.384,39.796h49.726
				C60.725,118.52,60.157,118.028,59.614,117.511z"/>
		</g>
	</g>
	<g>
		<g>
			<path fill="#404547" d="M87.296,63.141c4.288,0,8.214,0.671,11.782,2.021c3.565,1.347,6.632,3.23,9.217,5.646
				c2.585,2.421,4.582,5.376,6,8.862c1.419,3.49,2.127,7.339,2.127,11.555c0,4.146-0.708,7.931-2.127,11.349
				c-1.418,3.417-3.436,6.362-6.054,8.813c-2.618,2.453-5.751,4.332-9.381,5.644c-3.636,1.313-7.638,1.97-12,1.97
				c-4.363,0-8.368-0.676-12.001-2.021c-3.634-1.345-6.744-3.243-9.327-5.699c-2.583-2.453-4.601-5.393-6.054-8.81
				c-1.457-3.418-2.181-7.203-2.181-11.35c0-4.279,0.724-8.151,2.181-11.604c1.453-3.457,3.491-6.391,6.108-8.812
				c2.619-2.417,5.761-4.28,9.438-5.594C78.698,63.799,82.789,63.141,87.296,63.141z M86.86,73.401
				c-4.363,0-7.779,1.535-10.255,4.602c-2.476,3.059-3.708,7.454-3.708,13.169c0,5.236,1.254,9.408,3.762,12.506
				c2.509,3.098,5.869,4.651,10.093,4.651c4.362,0,7.83-1.572,10.418-4.703c2.583-3.139,3.872-7.455,3.872-12.966
				c0-5.508-1.256-9.763-3.765-12.764C94.77,74.896,91.299,73.401,86.86,73.401z"/>
		</g>
	</g>
</g>
</svg>
