<?xml version="1.0" encoding="iso-8859-1"?>
<!-- Generator: Adobe Illustrator 15.0.0, SVG Export Plug-In . SVG Version: 6.00 Build 0)  -->
<!DOCTYPE svg PUBLIC "-//W3C//DTD SVG 1.1//EN" "http://www.w3.org/Graphics/SVG/1.1/DTD/svg11.dtd">
<svg version="1.1" id="Ebene_4" xmlns="http://www.w3.org/2000/svg" xmlns:xlink="http://www.w3.org/1999/xlink" x="0px" y="0px"
	 width="128px" height="128px" viewBox="0 0 128 128" style="enable-background:new 0 0 128 128;" xml:space="preserve">
<path style="fill:#404547;" d="M43.646,43.376c0-5.729,1.997-10.6,5.992-14.609c3.993-4.01,8.798-6.016,14.419-6.016
	c5.62,0,10.401,2.006,14.37,6.016c3.954,4.009,5.938,8.88,5.938,14.609v5.322h13.563v-5.322c0-6.234-1.514-11.979-4.562-17.242
	c-3.036-5.264-7.146-9.436-12.341-12.514C75.83,10.544,70.155,9,64.003,9c-6.146,0-11.82,1.544-17.017,4.621
	c-5.195,3.078-9.313,7.25-12.354,12.514c-3.036,5.263-4.561,11.008-4.561,17.242v5.322h13.574V43.376z"/>
<linearGradient id="SVGID_1_" gradientUnits="userSpaceOnUse" x1="64.0005" y1="119" x2="64.0005" y2="58.4691">
	<stop  offset="0.3" style="stop-color:#426080"/>
	<stop  offset="1" style="stop-color:#819CBD"/>
</linearGradient>
<path style="fill:url(#SVGID_1_);" d="M21.772,57.292h84.503c1.24,0.271,2.325,0.874,3.262,1.82
	c1.309,1.326,1.963,2.953,1.963,4.888v48.123c0,1.928-0.654,3.562-1.963,4.887c-1.311,1.329-2.909,1.99-4.824,1.99H23.288
	c-1.843,0-3.429-0.661-4.771-1.99c-1.344-1.325-2.017-2.959-2.017-4.887V64c0-1.935,0.673-3.562,2.017-4.888
	C19.475,58.166,20.56,57.563,21.772,57.292z"/>
<path style="fill:#FFFFFF;" d="M71.428,73.955c0-2.762-2.238-5-5-5h-4.855c-2.761,0-5,2.238-5,5v27.922c0,2.762,2.239,5,5,5h4.855
	c2.762,0,5-2.238,5-5V73.955z"/>
</svg>
